<svg width="32" height="32" viewBox="0 0 32 32" fill="none" xmlns="http://www.w3.org/2000/svg">
<path d="M24.2959 6.23242L24.8515 5.40095L24.8514 5.40092L24.2959 6.23242ZM25.7676 7.7041L26.5991 7.14859L26.599 7.14853L25.7676 7.7041ZM26.667 14.667H27.667H26.667ZM25.7676 21.6299L26.599 22.1855L26.599 22.1855L25.7676 21.6299ZM24.2959 23.1016L24.8513 23.9331L24.8515 23.933L24.2959 23.1016ZM18.667 23.9971L18.6626 22.9971C18.1121 22.9995 17.667 23.4465 17.667 23.9971H18.667ZM18.667 24L19.5614 24.4472C19.6308 24.3084 19.667 24.1552 19.667 24H18.667ZM16.8945 27.5449L17.7888 27.9924L17.789 27.9921L16.8945 27.5449ZM15.1055 27.5449L14.211 27.9921L14.2112 27.9924L15.1055 27.5449ZM13.333 24H12.333C12.333 24.1552 12.3692 24.3084 12.4386 24.4472L13.333 24ZM13.333 23.9971H14.333C14.333 23.4465 13.8879 22.9995 13.3374 22.9971L13.333 23.9971ZM7.7041 23.1016L7.14853 23.933L7.14867 23.9331L7.7041 23.1016ZM6.23242 21.6299L5.40095 22.1855L5.40098 22.1855L6.23242 21.6299ZM5.33301 14.667L4.33301 14.667L5.33301 14.667ZM6.23242 7.7041L5.40095 7.14853L5.40092 7.14859L6.23242 7.7041ZM7.7041 6.23242L7.14859 5.40092L7.14853 5.40095L7.7041 6.23242ZM17.333 5.33301V6.33301C19.2262 6.33301 20.571 6.3344 21.613 6.44056C22.6384 6.54502 23.2594 6.74258 23.7404 7.06393L24.2959 6.23242L24.8514 5.40092C23.9872 4.82358 22.9993 4.57143 21.8158 4.45086C20.6489 4.33198 19.1848 4.33301 17.333 4.33301V5.33301ZM24.2959 6.23242L23.7403 7.06389C24.2135 7.38005 24.62 7.78651 24.9361 8.25967L25.7676 7.7041L26.599 7.14853C26.137 6.45699 25.543 5.86302 24.8515 5.40095L24.2959 6.23242ZM25.7676 7.7041L24.9361 8.25962C25.2574 8.74062 25.455 9.36161 25.5594 10.387C25.6656 11.429 25.667 12.7738 25.667 14.667H26.667H27.667C27.667 12.8152 27.668 11.3511 27.5491 10.1842C27.4286 9.0007 27.1764 8.01276 26.5991 7.14859L25.7676 7.7041ZM26.667 14.667L25.667 14.667C25.667 16.5602 25.6656 17.905 25.5595 18.947C25.455 19.9724 25.2575 20.5933 24.9361 21.0743L25.7676 21.6299L26.599 22.1855C27.1765 21.3213 27.4286 20.3333 27.5492 19.1497C27.668 17.9829 27.667 16.5188 27.667 14.667L26.667 14.667ZM25.7676 21.6299L24.9361 21.0743C24.62 21.5474 24.2134 21.954 23.7403 22.2701L24.2959 23.1016L24.8515 23.933C25.543 23.471 26.137 22.8769 26.599 22.1855L25.7676 21.6299ZM24.2959 23.1016L23.7405 22.27C23.3204 22.5506 22.793 22.7366 21.9828 22.8483C21.1566 22.9622 20.1057 22.9908 18.6626 22.9971L18.667 23.9971L18.6714 24.9971C20.1046 24.9908 21.2806 24.964 22.256 24.8296C23.2475 24.6929 24.0963 24.4374 24.8513 23.9331L24.2959 23.1016ZM18.667 23.9971H17.667V24H18.667H19.667V23.9971H18.667ZM18.667 24L17.7726 23.5528L16.0001 27.0977L16.8945 27.5449L17.789 27.9921L19.5614 24.4472L18.667 24ZM16.8945 27.5449L16.0002 27.0974L15.9998 27.0974L15.1055 27.5449L14.2112 27.9924C14.9484 29.4657 17.0516 29.4657 17.7888 27.9924L16.8945 27.5449ZM15.1055 27.5449L15.9999 27.0977L14.2274 23.5528L13.333 24L12.4386 24.4472L14.211 27.9921L15.1055 27.5449ZM13.333 24H14.333V23.9971H13.333H12.333V24H13.333ZM13.333 23.9971L13.3374 22.9971C11.8943 22.9908 10.8434 22.9622 10.0172 22.8483C9.207 22.7366 8.67956 22.5506 8.25954 22.27L7.7041 23.1016L7.14867 23.9331C7.90368 24.4374 8.75254 24.6929 9.74399 24.8296C10.7194 24.964 11.8954 24.9908 13.3286 24.9971L13.333 23.9971ZM7.7041 23.1016L8.25967 22.2701C7.78663 21.954 7.38003 21.5474 7.06386 21.0743L6.23242 21.6299L5.40098 22.1855C5.86299 22.8769 6.45704 23.471 7.14853 23.933L7.7041 23.1016ZM6.23242 21.6299L7.06389 21.0743C6.74252 20.5933 6.54496 19.9724 6.44052 18.947C6.33437 17.905 6.33301 16.5602 6.33301 14.667L5.33301 14.667L4.33301 14.667C4.33301 16.5188 4.33195 17.9829 4.45081 19.1497C4.57137 20.3333 4.82352 21.3213 5.40095 22.1855L6.23242 21.6299ZM5.33301 14.667H6.33301C6.33301 12.7738 6.3344 11.429 6.44056 10.387C6.54502 9.36161 6.74258 8.74062 7.06393 8.25962L6.23242 7.7041L5.40092 7.14859C4.82358 8.01276 4.57143 9.0007 4.45086 10.1842C4.33198 11.3511 4.33301 12.8152 4.33301 14.667H5.33301ZM6.23242 7.7041L7.06389 8.25967C7.38005 7.78651 7.78651 7.38005 8.25967 7.06389L7.7041 6.23242L7.14853 5.40095C6.45699 5.86302 5.86302 6.45699 5.40095 7.14853L6.23242 7.7041ZM7.7041 6.23242L8.25962 7.06393C8.74062 6.74258 9.36161 6.54502 10.387 6.44056C11.429 6.3344 12.7738 6.33301 14.667 6.33301V5.33301V4.33301C12.8152 4.33301 11.3511 4.33198 10.1842 4.45086C9.0007 4.57143 8.01276 4.82358 7.14859 5.40092L7.7041 6.23242ZM14.667 5.33301V6.33301H17.333V5.33301V4.33301H14.667V5.33301Z" fill="#1E1F25"/>
<ellipse cx="21.3333" cy="14.6667" rx="1.33333" ry="1.33333" fill="#1E1F25" stroke="#1E1F25" stroke-linecap="round"/>
<circle cx="16.0001" cy="14.6667" r="1.33333" fill="#1E1F25" stroke="#1E1F25" stroke-linecap="round"/>
<circle cx="10.6666" cy="14.6667" r="1.33333" fill="#1E1F25" stroke="#1E1F25" stroke-linecap="round"/>
</svg>
