<svg width="20" height="24" viewBox="0 0 20 24" fill="none" xmlns="http://www.w3.org/2000/svg">
<path d="M9.14335 5.12406C9.2801 5.12406 9.35381 5.03989 9.37482 4.91363C9.6905 3.20912 9.6589 3.12494 11.4897 2.79877C11.6159 2.7672 11.7001 2.69355 11.7001 2.55677C11.7001 2.43051 11.6159 2.34634 11.4897 2.32529C9.6589 1.99912 9.6905 1.91495 9.37482 0.210434C9.35381 0.0841735 9.2801 0 9.14335 0C9.00652 0 8.93292 0.0841735 8.91187 0.210434C8.59622 1.91495 8.62779 1.99912 6.79701 2.32529C6.66023 2.34634 6.58658 2.43051 6.58658 2.55677C6.58658 2.69355 6.66023 2.7672 6.79701 2.79877C8.62779 3.12494 8.59622 3.20912 8.91187 4.91363C8.93292 5.03989 9.00652 5.12406 9.14335 5.12406Z" fill="#E1E6E5"/>
<path d="M4.05085 12.363C4.25077 12.363 4.38755 12.2262 4.40859 12.0368C4.78737 9.22748 4.88206 9.22748 7.78605 8.66987C7.96492 8.6383 8.1017 8.51205 8.1017 8.31213C8.1017 8.12275 7.96492 7.98596 7.78605 7.96492C4.88206 7.55457 4.77684 7.45987 4.40859 4.6085C4.38755 4.40859 4.25077 4.2718 4.05085 4.2718C3.86146 4.2718 3.72468 4.40859 3.69311 4.61902C3.35642 7.42831 3.19859 7.41779 0.31565 7.96492C0.136782 7.99648 0 8.12275 0 8.31213C0 8.52257 0.136782 8.6383 0.357738 8.66987C3.21964 9.13285 3.35642 9.20647 3.69311 12.0158C3.72468 12.2262 3.86146 12.363 4.05085 12.363Z" fill="#E1E6E5"/>
<path d="M11.1845 24C11.4581 24 11.6581 23.8 11.7107 23.516C12.4577 17.7606 13.2678 16.8768 18.9706 16.2455C19.2652 16.2139 19.4651 16.0035 19.4651 15.7194C19.4651 15.4458 19.2652 15.2355 18.9706 15.2038C13.2678 14.5726 12.4577 13.6887 11.7107 7.92283C11.6581 7.63874 11.4581 7.44936 11.1845 7.44936C10.911 7.44936 10.7111 7.63874 10.669 7.92283C9.92197 13.6887 9.10124 14.5726 3.40903 15.2038C3.1039 15.2355 2.90399 15.4458 2.90399 15.7194C2.90399 16.0035 3.1039 16.2139 3.40903 16.2455C9.09074 16.9925 9.87986 17.7606 10.669 23.516C10.7111 23.8 10.911 24 11.1845 24Z" fill="#E1E6E5"/>
</svg>
