<svg width="177" height="177" viewBox="0 0 177 177" fill="none" xmlns="http://www.w3.org/2000/svg">
<rect width="177" height="177" rx="88.5" fill="#300B3A"/>
<path d="M77.8 94.6777L49.2446 111.164C46.8508 112.546 43.7898 111.726 42.4077 109.332L41.7993 108.278C37.8636 101.462 37.7172 93.0981 41.4119 86.1478C45.9132 77.6802 56.1966 74.136 64.959 78.0323L77.2105 83.48C81.909 85.5692 82.2532 92.1066 77.8 94.6777Z" fill="#19EB90"/>
<path d="M77.7998 82.3229L49.2444 65.8364C46.8505 64.4543 46.0303 61.3933 47.4124 58.9995L48.0208 57.9457C51.9565 51.1289 59.1263 46.8204 66.9929 46.5449C76.5766 46.2093 84.7877 53.343 85.7946 62.8796L87.2025 76.2135C87.7424 81.3272 82.253 84.894 77.7998 82.3229Z" fill="#19EB90"/>
<path d="M88.5 76.1446V43.1716C88.5 40.4075 90.7408 38.1667 93.505 38.1667H94.7218C102.593 38.1667 109.909 42.2216 114.081 48.8965C119.164 57.0285 117.091 67.7063 109.336 73.3467L98.4922 81.2329C94.3336 84.2573 88.5 81.2867 88.5 76.1446Z" fill="#19EB90"/>
<path d="M99.2002 82.3223L127.756 65.8358C130.149 64.4537 133.21 65.2739 134.593 67.6678L135.201 68.7216C139.137 75.5384 139.283 83.9019 135.588 90.8522C131.087 99.3198 120.804 102.864 112.041 98.9677L99.7897 93.52C95.0912 91.4308 94.747 84.8934 99.2002 82.3223Z" fill="#19EB90"/>
<path d="M99.2017 94.6784L127.757 111.165C130.151 112.547 130.971 115.608 129.589 118.002L128.981 119.056C125.045 125.872 117.875 130.181 110.009 130.456C100.425 130.792 92.2138 123.658 91.2069 114.122L89.799 100.788C89.259 95.6741 94.7485 92.1073 99.2017 94.6784Z" fill="#19EB90"/>
<path d="M88.5 100.855V133.828C88.5 136.593 86.2592 138.833 83.495 138.833H82.2782C74.4068 138.833 67.0906 134.778 62.9188 128.103C57.8363 119.971 59.9087 109.294 67.6642 103.653L78.5078 95.7671C82.6664 92.7427 88.5 95.7133 88.5 100.855Z" fill="#19EB90"/>
</svg>
