<svg width="24" height="24" viewBox="0 0 24 24" fill="none" xmlns="http://www.w3.org/2000/svg">
<path fill-rule="evenodd" clip-rule="evenodd" d="M24 12C24 18.6274 18.6274 24 12 24C5.37258 24 0 18.6274 0 12C0 5.37258 5.37258 0 12 0C18.6274 0 24 5.37258 24 12ZM13.3333 20C13.3333 20.7364 12.7364 21.3333 12 21.3333C11.2636 21.3333 10.6667 20.7364 10.6667 20C10.6667 19.2636 11.2636 18.6667 12 18.6667C12.7364 18.6667 13.3333 19.2636 13.3333 20ZM13.6836 10.3848C12.081 10.9191 11 12.419 11 14.1084V17.333H13V14.1084C13 13.2798 13.5304 12.5442 14.3164 12.2822C15.919 11.748 17 10.2479 17 8.55859V7.87402C16.9999 5.18223 14.8178 3.00013 12.126 3H12C9.23858 3 7 5.23858 7 8H9C9 6.34315 10.3431 5 12 5H12.126C13.7132 5.00013 14.9999 6.2868 15 7.87402V8.55859C15 9.3871 14.4696 10.1228 13.6836 10.3848Z" fill="#4B1658"/>
</svg>
