<svg width="227" height="32" viewBox="0 0 227 32" fill="none" xmlns="http://www.w3.org/2000/svg">
<path fill-rule="evenodd" clip-rule="evenodd" d="M22.8104 3.63741C22.9341 3.33482 23.1687 3.09087 23.4662 2.95537C23.7637 2.81987 24.1017 2.80304 24.4111 2.90833C24.7206 3.01362 24.9782 3.23307 25.1314 3.52188C25.2845 3.81069 25.3216 4.14707 25.2351 4.46231L25.1864 4.60343L21.838 12.8396L22.6809 13.0641C24.0279 13.4246 25.1492 14.5189 25.3621 16.0122C25.5443 17.2951 25.7149 19.2451 25.4801 21.2542C25.2467 23.2452 24.5949 25.4595 22.9823 27.0862C22.3896 27.684 21.5391 27.779 20.9643 27.7892C20.3088 27.7995 19.5532 27.6994 18.777 27.5455C17.217 27.235 15.3465 26.6603 13.5761 26.0496L13.045 25.8636L12.002 25.4864L11.0014 25.1131L10.0597 24.7501L8.80505 24.2523L7.7505 23.8225L6.70238 23.3799C6.4967 23.293 6.31727 23.154 6.18181 22.9765C6.04635 22.799 5.95956 22.5892 5.93002 22.3679C5.90048 22.1466 5.9292 21.9214 6.01336 21.7146C6.09752 21.5078 6.2342 21.3265 6.40988 21.1887C8.17643 19.8032 9.83521 18.2098 11.2349 16.7384L11.9135 16.0148L12.2342 15.6633L12.8398 14.9872L13.122 14.6639L13.884 13.7723L14.3164 13.2514C14.7691 12.6961 15.3634 12.2733 16.0366 12.0278C16.7098 11.7824 17.4367 11.7233 18.1407 11.8569L18.396 11.9159L19.3415 12.1687L22.8104 3.63741ZM14.115 17.4093C12.7104 18.9638 11.2203 20.4388 9.65176 21.8276C10.3899 22.1261 11.1309 22.4169 11.875 22.7C12.559 22.2124 13.1744 21.6351 13.7044 20.9835C13.9293 20.7162 14.1383 20.4361 14.3305 20.1445L14.5127 19.8468C14.6815 19.556 14.9578 19.343 15.282 19.2539C15.6063 19.1647 15.9526 19.2064 16.2464 19.3701C16.5402 19.5337 16.758 19.8062 16.8529 20.1288C16.9478 20.4514 16.9123 20.7984 16.7539 21.0951C16.4537 21.6339 16.0778 22.1394 15.6865 22.614C15.3695 22.9995 15.0302 23.3662 14.6705 23.7122C15.2632 23.9149 15.8558 24.1073 16.4306 24.2844C16.9091 23.9547 17.4697 23.2773 17.9778 22.5076C18.1822 22.1997 18.3755 21.8832 18.5576 21.5582L18.8193 21.0656C18.9702 20.7605 19.2361 20.528 19.5585 20.419C19.8809 20.31 20.2334 20.3335 20.5384 20.4844C20.8435 20.6353 21.076 20.9012 21.185 21.2236C21.294 21.546 21.2705 21.8985 21.1196 22.2035C20.8258 22.7962 20.4833 23.3697 20.1189 23.9213C19.8661 24.3055 19.5947 24.6771 19.3056 25.0349L19.8457 25.1401C20.3101 25.226 20.8001 25.2863 21.2427 25.1952C22.2254 24.1497 22.7347 22.632 22.931 20.9552C22.9764 20.5652 23.0054 20.1787 23.0183 19.7955L14.115 17.4093ZM17.7314 14.3945C17.4714 14.3296 17.1982 14.3409 16.9444 14.4268C16.6906 14.5128 16.4668 14.6699 16.2997 14.8794L15.988 15.2553L22.9131 17.1104L22.8528 16.6075L22.822 16.374C22.7745 16.0494 22.5449 15.7441 22.1664 15.5914L22.0176 15.5427L17.7314 14.3945ZM7.78386 10.184L7.86596 10.3636C8.2158 11.0873 8.76676 11.6948 9.45291 12.1135L9.5812 12.1879C9.59453 12.1956 9.6056 12.2066 9.6133 12.2199C9.62101 12.2332 9.62506 12.2483 9.62506 12.2636C9.62506 12.279 9.62101 12.2941 9.6133 12.3074C9.6056 12.3206 9.59453 12.3317 9.5812 12.3393L9.45291 12.4137C8.76687 12.8333 8.21633 13.4417 7.86725 14.1662L7.78514 14.3445C7.77803 14.3607 7.76635 14.3744 7.75155 14.3841C7.73674 14.3938 7.71944 14.3989 7.70175 14.3989C7.68407 14.3989 7.66677 14.3938 7.65196 14.3841C7.63715 14.3744 7.62548 14.3607 7.61836 14.3445L7.53626 14.1649C7.18642 13.4412 6.63546 12.8337 5.94932 12.415L5.82102 12.3406C5.8077 12.333 5.79662 12.3219 5.78892 12.3086C5.78122 12.2953 5.77716 12.2803 5.77716 12.2649C5.77716 12.2495 5.78122 12.2344 5.78892 12.2212C5.79662 12.2079 5.8077 12.1968 5.82102 12.1892L5.94932 12.1148C6.63488 11.6951 7.18496 11.0866 7.53369 10.3624L7.6158 10.184C7.62291 10.1678 7.63459 10.1541 7.64939 10.1444C7.6642 10.1347 7.6815 10.1296 7.69919 10.1296C7.71687 10.1296 7.73417 10.1347 7.74898 10.1444C7.76379 10.1541 7.77674 10.1678 7.78386 10.184ZM11.417 3.95044C11.4683 3.83498 11.63 3.83498 11.6813 3.95044L11.8122 4.23524C12.37 5.3868 13.2474 6.35362 14.3395 7.02041L14.5409 7.13972C14.5625 7.1517 14.5806 7.16927 14.5932 7.19059C14.6057 7.21191 14.6124 7.23621 14.6124 7.26096C14.6124 7.2857 14.6057 7.31 14.5932 7.33132C14.5806 7.35264 14.5625 7.37021 14.5409 7.38219L14.3382 7.50022C13.2459 8.16736 12.3686 9.13464 11.8109 10.2867L11.6826 10.5715C11.6713 10.5973 11.6527 10.6192 11.6291 10.6346C11.6055 10.65 11.578 10.6583 11.5498 10.6583C11.5216 10.6583 11.4941 10.65 11.4705 10.6346C11.4469 10.6192 11.4283 10.5973 11.417 10.5715L11.2862 10.2867C10.7285 9.13464 9.85116 8.16736 8.75886 7.50022L8.55616 7.38219C8.53451 7.37021 8.51646 7.35264 8.50389 7.33132C8.49132 7.31 8.48469 7.2857 8.48469 7.26096C8.48469 7.23621 8.49132 7.21191 8.50389 7.19059C8.51646 7.16927 8.53451 7.1517 8.55616 7.13972L8.76014 7.02041C9.85226 6.35362 10.7296 5.3868 11.2875 4.23524L11.4157 3.95044H11.417Z" fill="#1E1F25"/>
<path d="M49.6591 19.1359V20.68H43.9869V19.1359H49.6591ZM44.5301 9.38222V20.68H42.5825V9.38222H44.5301ZM53.4982 9.38222V20.68H51.5506V9.38222H53.4982ZM56.9649 9.38222H58.703L61.9698 18.0961L65.2287 9.38222H66.9669L62.6526 20.68H61.2714L56.9649 9.38222ZM56.1735 9.38222H57.8262L58.1133 16.9244V20.68H56.1735V9.38222ZM66.1056 9.38222H67.7661V20.68H65.8185V16.9244L66.1056 9.38222ZM74.6237 16.4666H71.6828V14.9225H74.6237C75.1358 14.9225 75.5496 14.8397 75.8652 14.6742C76.1807 14.5086 76.4109 14.281 76.5558 13.9913C76.7058 13.6965 76.7808 13.3602 76.7808 12.9826C76.7808 12.6257 76.7058 12.292 76.5558 11.9816C76.4109 11.6661 76.1807 11.4126 75.8652 11.2212C75.5496 11.0298 75.1358 10.9341 74.6237 10.9341H72.2803V20.68H70.3327V9.38222H74.6237C75.4979 9.38222 76.2402 9.53741 76.8506 9.84779C77.4662 10.153 77.9344 10.5772 78.2551 11.1203C78.5758 11.6583 78.7362 12.2739 78.7362 12.9671C78.7362 13.6965 78.5758 14.3224 78.2551 14.8449C77.9344 15.3673 77.4662 15.7683 76.8506 16.0476C76.2402 16.3269 75.4979 16.4666 74.6237 16.4666ZM88.1311 19.1359V20.68H82.133V19.1359H88.1311ZM82.6839 9.38222V20.68H80.7363V9.38222H82.6839ZM87.3474 14.1V15.6208H82.133V14.1H87.3474ZM88.0923 9.38222V10.9341H82.133V9.38222H88.0923ZM97.8752 19.1359V20.68H90.0303V19.1359H97.8752ZM97.6967 10.5849L90.752 20.68H89.4484V19.4462L96.4164 9.38222H97.6967V10.5849ZM96.9751 9.38222V10.9341H89.4949V9.38222H96.9751ZM104.329 10.8876L100.954 20.68H98.9131L103.165 9.38222H104.469L104.329 10.8876ZM107.154 20.68L103.771 10.8876L103.623 9.38222H104.934L109.202 20.68H107.154ZM106.991 16.4899V18.034H100.845V16.4899H106.991ZM119.224 16.4666H116.283V14.9225H119.224C119.736 14.9225 120.15 14.8397 120.465 14.6742C120.781 14.5086 121.011 14.281 121.156 13.9913C121.306 13.6965 121.381 13.3602 121.381 12.9826C121.381 12.6257 121.306 12.292 121.156 11.9816C121.011 11.6661 120.781 11.4126 120.465 11.2212C120.15 11.0298 119.736 10.9341 119.224 10.9341H116.88V20.68H114.933V9.38222H119.224C120.098 9.38222 120.84 9.53741 121.451 9.84779C122.066 10.153 122.534 10.5772 122.855 11.1203C123.176 11.6583 123.336 12.2739 123.336 12.9671C123.336 13.6965 123.176 14.3224 122.855 14.8449C122.534 15.3673 122.066 15.7683 121.451 16.0476C120.84 16.3269 120.098 16.4666 119.224 16.4666ZM125.336 9.38222H129.333C130.191 9.38222 130.923 9.51154 131.528 9.77019C132.134 10.0288 132.597 10.4116 132.917 10.9186C133.243 11.4204 133.406 12.0411 133.406 12.7809C133.406 13.3447 133.303 13.8413 133.096 14.2707C132.889 14.7 132.597 15.0621 132.219 15.357C131.841 15.6467 131.391 15.8717 130.869 16.0321L130.279 16.3192H126.687L126.671 14.775H129.364C129.829 14.775 130.217 14.6923 130.528 14.5267C130.838 14.3612 131.071 14.1362 131.226 13.8517C131.386 13.562 131.466 13.2361 131.466 12.874C131.466 12.4808 131.389 12.1394 131.234 11.8497C131.084 11.5549 130.851 11.3298 130.535 11.1747C130.22 11.0143 129.819 10.9341 129.333 10.9341H127.284V20.68H125.336V9.38222ZM131.785 20.68L129.131 15.6053L131.172 15.5975L133.864 20.5791V20.68H131.785ZM144.609 14.7207V15.3415C144.609 16.195 144.498 16.9606 144.275 17.6383C144.053 18.3159 143.735 18.8927 143.321 19.3686C142.912 19.8446 142.421 20.2093 141.847 20.4627C141.273 20.711 140.636 20.8352 139.938 20.8352C139.245 20.8352 138.611 20.711 138.037 20.4627C137.468 20.2093 136.974 19.8446 136.555 19.3686C136.136 18.8927 135.81 18.3159 135.577 17.6383C135.35 16.9606 135.236 16.195 135.236 15.3415V14.7207C135.236 13.8672 135.35 13.1042 135.577 12.4317C135.805 11.754 136.125 11.1772 136.539 10.7013C136.958 10.2202 137.452 9.85554 138.021 9.60724C138.596 9.35377 139.229 9.22703 139.922 9.22703C140.621 9.22703 141.257 9.35377 141.831 9.60724C142.405 9.85554 142.899 10.2202 143.313 10.7013C143.727 11.1772 144.045 11.754 144.268 12.4317C144.495 13.1042 144.609 13.8672 144.609 14.7207ZM142.662 15.3415V14.7052C142.662 14.0741 142.599 13.518 142.475 13.0369C142.356 12.5507 142.178 12.1446 141.94 11.8187C141.707 11.4876 141.42 11.2393 141.079 11.0738C140.737 10.9031 140.352 10.8177 139.922 10.8177C139.493 10.8177 139.11 10.9031 138.774 11.0738C138.438 11.2393 138.151 11.4876 137.913 11.8187C137.68 12.1446 137.501 12.5507 137.377 13.0369C137.253 13.518 137.191 14.0741 137.191 14.7052V15.3415C137.191 15.9726 137.253 16.5313 137.377 17.0175C137.501 17.5038 137.683 17.915 137.92 18.2513C138.164 18.5824 138.453 18.8332 138.79 19.0039C139.126 19.1695 139.509 19.2523 139.938 19.2523C140.372 19.2523 140.758 19.1695 141.094 19.0039C141.43 18.8332 141.715 18.5824 141.948 18.2513C142.18 17.915 142.356 17.5038 142.475 17.0175C142.599 16.5313 142.662 15.9726 142.662 15.3415ZM148.759 9.38222V20.68H146.811V9.38222H148.759ZM153.368 14.325V15.8691H148.262V14.325H153.368ZM154.012 9.38222V10.9341H148.262V9.38222H154.012ZM157.898 9.38222V20.68H155.95V9.38222H157.898ZM166.516 17.7702C166.516 17.5374 166.48 17.3305 166.408 17.1494C166.341 16.9684 166.219 16.8028 166.043 16.6528C165.867 16.5028 165.619 16.358 165.298 16.2183C164.983 16.0735 164.579 15.926 164.088 15.776C163.55 15.6105 163.053 15.4268 162.598 15.2251C162.148 15.0182 161.755 14.7802 161.418 14.5112C161.082 14.2371 160.821 13.9241 160.635 13.5723C160.449 13.2154 160.355 12.8041 160.355 12.3386C160.355 11.8782 160.451 11.4592 160.643 11.0815C160.839 10.7039 161.116 10.378 161.473 10.1038C161.835 9.82451 162.262 9.60983 162.753 9.45981C163.245 9.30462 163.788 9.22703 164.383 9.22703C165.221 9.22703 165.942 9.38222 166.548 9.6926C167.158 10.003 167.626 10.4194 167.952 10.9419C168.283 11.4643 168.449 12.0411 168.449 12.6722H166.516C166.516 12.2998 166.436 11.9713 166.276 11.6868C166.121 11.3971 165.883 11.1695 165.562 11.0039C165.246 10.8384 164.846 10.7556 164.359 10.7556C163.899 10.7556 163.516 10.8255 163.211 10.9651C162.906 11.1048 162.678 11.2936 162.528 11.5316C162.378 11.7695 162.303 12.0385 162.303 12.3386C162.303 12.5507 162.352 12.7447 162.451 12.9205C162.549 13.0912 162.699 13.2516 162.901 13.4016C163.102 13.5465 163.356 13.6835 163.661 13.8129C163.966 13.9422 164.326 14.0663 164.74 14.1853C165.365 14.3716 165.911 14.5785 166.377 14.8061C166.842 15.0285 167.23 15.282 167.541 15.5665C167.851 15.851 168.084 16.1743 168.239 16.5364C168.394 16.8934 168.472 17.2995 168.472 17.7547C168.472 18.2306 168.376 18.6599 168.185 19.0427C167.993 19.4204 167.719 19.7437 167.362 20.0127C167.01 20.2765 166.586 20.4808 166.09 20.6257C165.598 20.7653 165.05 20.8352 164.445 20.8352C163.902 20.8352 163.366 20.7628 162.838 20.6179C162.316 20.4731 161.84 20.2532 161.411 19.9584C160.981 19.6583 160.64 19.2859 160.386 18.841C160.133 18.391 160.006 17.8659 160.006 17.2658H161.954C161.954 17.6331 162.016 17.9461 162.14 18.2047C162.269 18.4634 162.448 18.6755 162.676 18.841C162.903 19.0014 163.167 19.1203 163.467 19.1979C163.772 19.2755 164.098 19.3143 164.445 19.3143C164.9 19.3143 165.28 19.2497 165.585 19.1203C165.896 18.991 166.128 18.81 166.284 18.5772C166.439 18.3444 166.516 18.0754 166.516 17.7702ZM176.392 17.7702C176.392 17.5374 176.356 17.3305 176.284 17.1494C176.217 16.9684 176.095 16.8028 175.919 16.6528C175.743 16.5028 175.495 16.358 175.174 16.2183C174.859 16.0735 174.455 15.926 173.964 15.776C173.426 15.6105 172.929 15.4268 172.474 15.2251C172.024 15.0182 171.631 14.7802 171.294 14.5112C170.958 14.2371 170.697 13.9241 170.511 13.5723C170.325 13.2154 170.231 12.8041 170.231 12.3386C170.231 11.8782 170.327 11.4592 170.519 11.0815C170.715 10.7039 170.992 10.378 171.349 10.1038C171.711 9.82451 172.138 9.60983 172.629 9.45981C173.121 9.30462 173.664 9.22703 174.259 9.22703C175.097 9.22703 175.818 9.38222 176.424 9.6926C177.034 10.003 177.502 10.4194 177.828 10.9419C178.159 11.4643 178.325 12.0411 178.325 12.6722H176.392C176.392 12.2998 176.312 11.9713 176.152 11.6868C175.997 11.3971 175.759 11.1695 175.438 11.0039C175.122 10.8384 174.722 10.7556 174.235 10.7556C173.775 10.7556 173.392 10.8255 173.087 10.9651C172.782 11.1048 172.554 11.2936 172.404 11.5316C172.254 11.7695 172.179 12.0385 172.179 12.3386C172.179 12.5507 172.228 12.7447 172.327 12.9205C172.425 13.0912 172.575 13.2516 172.777 13.4016C172.978 13.5465 173.232 13.6835 173.537 13.8129C173.842 13.9422 174.202 14.0663 174.616 14.1853C175.241 14.3716 175.787 14.5785 176.253 14.8061C176.718 15.0285 177.106 15.282 177.417 15.5665C177.727 15.851 177.96 16.1743 178.115 16.5364C178.27 16.8934 178.348 17.2995 178.348 17.7547C178.348 18.2306 178.252 18.6599 178.061 19.0427C177.869 19.4204 177.595 19.7437 177.238 20.0127C176.886 20.2765 176.462 20.4808 175.966 20.6257C175.474 20.7653 174.926 20.8352 174.321 20.8352C173.778 20.8352 173.242 20.7628 172.714 20.6179C172.192 20.4731 171.716 20.2532 171.287 19.9584C170.857 19.6583 170.516 19.2859 170.262 18.841C170.009 18.391 169.882 17.8659 169.882 17.2658H171.83C171.83 17.6331 171.892 17.9461 172.016 18.2047C172.145 18.4634 172.324 18.6755 172.552 18.841C172.779 19.0014 173.043 19.1203 173.343 19.1979C173.648 19.2755 173.974 19.3143 174.321 19.3143C174.776 19.3143 175.156 19.2497 175.461 19.1203C175.772 18.991 176.004 18.81 176.16 18.5772C176.315 18.3444 176.392 18.0754 176.392 17.7702ZM182.404 9.38222V20.68H180.457V9.38222H182.404ZM194.088 14.7207V15.3415C194.088 16.195 193.977 16.9606 193.755 17.6383C193.532 18.3159 193.214 18.8927 192.8 19.3686C192.391 19.8446 191.9 20.2093 191.326 20.4627C190.752 20.711 190.115 20.8352 189.417 20.8352C188.724 20.8352 188.09 20.711 187.516 20.4627C186.947 20.2093 186.453 19.8446 186.034 19.3686C185.615 18.8927 185.289 18.3159 185.056 17.6383C184.829 16.9606 184.715 16.195 184.715 15.3415V14.7207C184.715 13.8672 184.829 13.1042 185.056 12.4317C185.284 11.754 185.605 11.1772 186.018 10.7013C186.437 10.2202 186.931 9.85554 187.5 9.60724C188.075 9.35377 188.708 9.22703 189.401 9.22703C190.1 9.22703 190.736 9.35377 191.31 9.60724C191.885 9.85554 192.379 10.2202 192.792 10.7013C193.206 11.1772 193.524 11.754 193.747 12.4317C193.974 13.1042 194.088 13.8672 194.088 14.7207ZM192.141 15.3415V14.7052C192.141 14.0741 192.078 13.518 191.954 13.0369C191.835 12.5507 191.657 12.1446 191.419 11.8187C191.186 11.4876 190.899 11.2393 190.558 11.0738C190.216 10.9031 189.831 10.8177 189.401 10.8177C188.972 10.8177 188.589 10.9031 188.253 11.0738C187.917 11.2393 187.63 11.4876 187.392 11.8187C187.159 12.1446 186.981 12.5507 186.856 13.0369C186.732 13.518 186.67 14.0741 186.67 14.7052V15.3415C186.67 15.9726 186.732 16.5313 186.856 17.0175C186.981 17.5038 187.162 17.915 187.4 18.2513C187.643 18.5824 187.932 18.8332 188.269 19.0039C188.605 19.1695 188.988 19.2523 189.417 19.2523C189.852 19.2523 190.237 19.1695 190.573 19.0039C190.909 18.8332 191.194 18.5824 191.427 18.2513C191.659 17.915 191.835 17.5038 191.954 17.0175C192.078 16.5313 192.141 15.9726 192.141 15.3415ZM205.252 9.38222V20.68H203.305L198.238 12.5869V20.68H196.29V9.38222H198.238L203.32 17.4909V9.38222H205.252ZM212.366 10.8876L208.991 20.68H206.95L211.202 9.38222H212.506L212.366 10.8876ZM215.19 20.68L211.807 10.8876L211.66 9.38222H212.971L217.239 20.68H215.19ZM215.027 16.4899V18.034H208.882V16.4899H215.027ZM225.835 19.1359V20.68H220.162V19.1359H225.835ZM220.706 9.38222V20.68H218.758V9.38222H220.706Z" fill="#1E1F25"/>
</svg>
