<svg width="180" height="41" viewBox="0 0 180 41" fill="none" xmlns="http://www.w3.org/2000/svg">
<rect y="0.5" width="40" height="40" rx="20" fill="#4B1658"/>
<path d="M21.7007 19.5181L26.2393 16.8977C26.6198 16.6781 27.1063 16.8084 27.3259 17.1889L27.4226 17.3564C28.0482 18.4399 28.0714 19.7692 27.4842 20.8739C26.7688 22.2197 25.1343 22.783 23.7416 22.1637L21.7944 21.2979C21.0476 20.9658 20.9929 19.9268 21.7007 19.5181Z" fill="#19EB90"/>
<path d="M21.7007 21.4818L26.2393 24.1022C26.6198 24.3218 26.7502 24.8083 26.5305 25.1888L26.4338 25.3563C25.8083 26.4398 24.6687 27.1246 23.4184 27.1684C21.8951 27.2217 20.5901 26.0879 20.43 24.5721L20.2063 22.4528C20.1204 21.6401 20.9929 21.0731 21.7007 21.4818Z" fill="#19EB90"/>
<path d="M20 22.4638V27.7045C20 28.1438 19.6438 28.5 19.2045 28.5H19.0111C17.76 28.5 16.5972 27.8555 15.9341 26.7946C15.1263 25.5021 15.4557 23.805 16.6883 22.9085L18.4118 21.655C19.0728 21.1743 20 21.6465 20 22.4638Z" fill="#19EB90"/>
<path d="M18.2993 21.4819L13.7607 24.1023C13.3802 24.3219 12.8937 24.1916 12.6741 23.8111L12.5774 23.6436C11.9518 22.5601 11.9286 21.2308 12.5158 20.1261C13.2312 18.7803 14.8657 18.217 16.2584 18.8363L18.2056 19.7021C18.9524 20.0342 19.0071 21.0732 18.2993 21.4819Z" fill="#19EB90"/>
<path d="M18.2991 19.518L13.7605 16.8976C13.38 16.678 13.2496 16.1915 13.4693 15.811L13.566 15.6435C14.1915 14.56 15.3311 13.8752 16.5814 13.8314C18.1047 13.7781 19.4097 14.9119 19.5698 16.4277L19.7935 18.547C19.8794 19.3597 19.0069 19.9267 18.2991 19.518Z" fill="#19EB90"/>
<path d="M20 18.5362V13.2955C20 12.8562 20.3562 12.5 20.7955 12.5H20.9889C22.24 12.5 23.4028 13.1445 24.0659 14.2054C24.8737 15.4979 24.5443 17.195 23.3117 18.0915L21.5882 19.345C20.9272 19.8257 20 19.3535 20 18.5362Z" fill="#19EB90"/>
<path d="M48.792 20.052C48.792 18.388 49.152 16.908 49.872 15.612C50.592 14.3 51.592 13.284 52.872 12.564C54.168 11.828 55.632 11.46 57.264 11.46C59.264 11.46 60.976 11.988 62.4 13.044C63.824 14.1 64.776 15.54 65.256 17.364H60.744C60.408 16.66 59.928 16.124 59.304 15.756C58.696 15.388 58 15.204 57.216 15.204C55.952 15.204 54.928 15.644 54.144 16.524C53.36 17.404 52.968 18.58 52.968 20.052C52.968 21.524 53.36 22.7 54.144 23.58C54.928 24.46 55.952 24.9 57.216 24.9C58 24.9 58.696 24.716 59.304 24.348C59.928 23.98 60.408 23.444 60.744 22.74H65.256C64.776 24.564 63.824 26.004 62.4 27.06C60.976 28.1 59.264 28.62 57.264 28.62C55.632 28.62 54.168 28.26 52.872 27.54C51.592 26.804 50.592 25.788 49.872 24.492C49.152 23.196 48.792 21.716 48.792 20.052ZM71.8733 10.74V28.5H67.7693V10.74H71.8733ZM87.4714 21.588C87.4714 21.972 87.4474 22.372 87.3994 22.788H78.1114C78.1754 23.62 78.4394 24.26 78.9034 24.708C79.3834 25.14 79.9674 25.356 80.6554 25.356C81.6794 25.356 82.3914 24.924 82.7914 24.06H87.1594C86.9354 24.94 86.5274 25.732 85.9354 26.436C85.3594 27.14 84.6314 27.692 83.7514 28.092C82.8714 28.492 81.8874 28.692 80.7994 28.692C79.4874 28.692 78.3194 28.412 77.2954 27.852C76.2714 27.292 75.4714 26.492 74.8954 25.452C74.3194 24.412 74.0314 23.196 74.0314 21.804C74.0314 20.412 74.3114 19.196 74.8714 18.156C75.4474 17.116 76.2474 16.316 77.2714 15.756C78.2954 15.196 79.4714 14.916 80.7994 14.916C82.0954 14.916 83.2474 15.188 84.2554 15.732C85.2634 16.276 86.0474 17.052 86.6074 18.06C87.1834 19.068 87.4714 20.244 87.4714 21.588ZM83.2714 20.508C83.2714 19.804 83.0314 19.244 82.5514 18.828C82.0714 18.412 81.4714 18.204 80.7514 18.204C80.0634 18.204 79.4794 18.404 78.9994 18.804C78.5354 19.204 78.2474 19.772 78.1354 20.508H83.2714ZM88.8204 21.78C88.8204 20.404 89.0764 19.196 89.5884 18.156C90.1164 17.116 90.8284 16.316 91.7244 15.756C92.6204 15.196 93.6204 14.916 94.7244 14.916C95.6684 14.916 96.4924 15.108 97.1964 15.492C97.9164 15.876 98.4684 16.38 98.8524 17.004V15.108H102.956V28.5H98.8524V26.604C98.4524 27.228 97.8924 27.732 97.1724 28.116C96.4684 28.5 95.6444 28.692 94.7004 28.692C93.6124 28.692 92.6204 28.412 91.7244 27.852C90.8284 27.276 90.1164 26.468 89.5884 25.428C89.0764 24.372 88.8204 23.156 88.8204 21.78ZM98.8524 21.804C98.8524 20.78 98.5644 19.972 97.9884 19.38C97.4284 18.788 96.7404 18.492 95.9244 18.492C95.1084 18.492 94.4124 18.788 93.8364 19.38C93.2764 19.956 92.9964 20.756 92.9964 21.78C92.9964 22.804 93.2764 23.62 93.8364 24.228C94.4124 24.82 95.1084 25.116 95.9244 25.116C96.7404 25.116 97.4284 24.82 97.9884 24.228C98.5644 23.636 98.8524 22.828 98.8524 21.804ZM110.03 17.34C110.51 16.604 111.11 16.028 111.83 15.612C112.55 15.18 113.35 14.964 114.23 14.964V19.308H113.102C112.078 19.308 111.31 19.532 110.798 19.98C110.286 20.412 110.03 21.18 110.03 22.284V28.5H105.926V15.108H110.03V17.34ZM132.245 11.652V14.94H125.381V18.492H130.517V21.684H125.381V28.5H121.277V11.652H132.245ZM133.586 21.78C133.586 20.404 133.842 19.196 134.354 18.156C134.882 17.116 135.594 16.316 136.49 15.756C137.386 15.196 138.386 14.916 139.49 14.916C140.434 14.916 141.258 15.108 141.962 15.492C142.682 15.876 143.234 16.38 143.618 17.004V15.108H147.722V28.5H143.618V26.604C143.218 27.228 142.658 27.732 141.938 28.116C141.234 28.5 140.41 28.692 139.466 28.692C138.378 28.692 137.386 28.412 136.49 27.852C135.594 27.276 134.882 26.468 134.354 25.428C133.842 24.372 133.586 23.156 133.586 21.78ZM143.618 21.804C143.618 20.78 143.33 19.972 142.754 19.38C142.194 18.788 141.506 18.492 140.69 18.492C139.874 18.492 139.178 18.788 138.602 19.38C138.042 19.956 137.762 20.756 137.762 21.78C137.762 22.804 138.042 23.62 138.602 24.228C139.178 24.82 139.874 25.116 140.69 25.116C141.506 25.116 142.194 24.82 142.754 24.228C143.33 23.636 143.618 22.828 143.618 21.804ZM156.139 28.692C154.971 28.692 153.931 28.492 153.019 28.092C152.107 27.692 151.387 27.148 150.859 26.46C150.331 25.756 150.035 24.972 149.971 24.108H154.027C154.075 24.572 154.291 24.948 154.675 25.236C155.059 25.524 155.531 25.668 156.091 25.668C156.603 25.668 156.995 25.572 157.267 25.38C157.555 25.172 157.699 24.908 157.699 24.588C157.699 24.204 157.499 23.924 157.099 23.748C156.699 23.556 156.051 23.348 155.155 23.124C154.195 22.9 153.395 22.668 152.755 22.428C152.115 22.172 151.563 21.78 151.099 21.252C150.635 20.708 150.403 19.98 150.403 19.068C150.403 18.3 150.611 17.604 151.027 16.98C151.459 16.34 152.083 15.836 152.899 15.468C153.731 15.1 154.715 14.916 155.851 14.916C157.531 14.916 158.851 15.332 159.811 16.164C160.787 16.996 161.347 18.1 161.491 19.476H157.699C157.635 19.012 157.427 18.644 157.075 18.372C156.739 18.1 156.291 17.964 155.731 17.964C155.251 17.964 154.883 18.06 154.627 18.252C154.371 18.428 154.243 18.676 154.243 18.996C154.243 19.38 154.443 19.668 154.843 19.86C155.259 20.052 155.899 20.244 156.763 20.436C157.755 20.692 158.563 20.948 159.187 21.204C159.811 21.444 160.355 21.844 160.819 22.404C161.299 22.948 161.547 23.684 161.563 24.612C161.563 25.396 161.339 26.1 160.891 26.724C160.459 27.332 159.827 27.812 158.995 28.164C158.179 28.516 157.227 28.692 156.139 28.692ZM171.538 25.02V28.5H169.45C167.962 28.5 166.802 28.14 165.97 27.42C165.138 26.684 164.722 25.492 164.722 23.844V18.516H163.09V15.108H164.722V11.844H168.826V15.108H171.514V18.516H168.826V23.892C168.826 24.292 168.922 24.58 169.114 24.756C169.306 24.932 169.626 25.02 170.074 25.02H171.538ZM175.744 28.692C175.024 28.692 174.432 28.484 173.968 28.068C173.52 27.636 173.296 27.108 173.296 26.484C173.296 25.844 173.52 25.308 173.968 24.876C174.432 24.444 175.024 24.228 175.744 24.228C176.448 24.228 177.024 24.444 177.472 24.876C177.936 25.308 178.168 25.844 178.168 26.484C178.168 27.108 177.936 27.636 177.472 28.068C177.024 28.484 176.448 28.692 175.744 28.692Z" fill="black"/>
</svg>
