<svg width="24" height="27" viewBox="0 0 24 27" fill="none" xmlns="http://www.w3.org/2000/svg">
<path d="M10.4324 0.397263C11.6679 -0.132191 13.066 -0.13223 14.3015 0.397263L22.8357 4.05449C23.4375 4.31257 23.8279 4.90457 23.8279 5.55937V14.159C23.8279 17.3315 22.2952 20.3091 19.7136 22.1531L14.2703 26.0418C13.1317 26.8549 11.6021 26.854 10.4636 26.0408L5.01929 22.1531C2.43781 20.3091 0.906006 17.3314 0.906006 14.159V5.55937C0.906006 4.90452 1.29634 4.31254 1.89819 4.05449L10.4324 0.397263ZM17.9041 8.61015C17.4998 8.28673 16.9212 8.32855 16.5662 8.69023L16.4978 8.7664L10.6472 16.0799L8.16284 13.5965C7.77236 13.206 7.13931 13.2061 6.74878 13.5965C6.35827 13.987 6.35826 14.62 6.74878 15.0105L9.62769 17.8895C10.2599 18.5213 11.3017 18.4644 11.8601 17.7664L18.0603 10.0164L18.1199 9.9334C18.3949 9.50774 18.3081 8.93368 17.9041 8.61015Z" fill="#19EB90"/>
</svg>
