<svg width="101" height="101" viewBox="0 0 101 101" fill="none" xmlns="http://www.w3.org/2000/svg">
<rect x="0.666748" y="0.642761" width="100" height="100" rx="17.3333" fill="#ECEEF3"/>
<path d="M70 59.2099C70 60.4758 69.0142 61.4366 67.8641 61.4366C66.7141 61.4366 65.7518 60.4054 65.7518 59.3037V50.6312L66.1742 39.685L62.3015 44.0681L39.0182 67.3199C38.5724 67.7653 38.056 67.9527 37.5397 67.9527C36.366 67.9527 35.3333 66.8981 35.3333 65.773C35.3333 65.2573 35.5681 64.7181 35.9905 64.2963L59.2503 41.021L63.6159 37.2004L52.162 37.5755H43.9941C42.8909 37.5755 41.8817 36.6144 41.8817 35.4894C41.8817 34.3643 42.7735 33.3564 44.088 33.3564H67.6998C69.1081 33.3564 69.9765 34.294 69.9765 35.63L70 59.2099Z" fill="#4B1658"/>
</svg>
