<svg width="100" height="100" viewBox="0 0 100 100" fill="none" xmlns="http://www.w3.org/2000/svg">
<rect width="100" height="100" rx="15.6667" fill="#545462"/>
<path d="M62.6667 57.7433C62.6667 58.8875 61.7758 59.756 60.7363 59.756C59.6968 59.756 58.827 58.8238 58.827 57.8281V49.9895L59.2088 40.0958L55.7085 44.0575L34.664 65.0735C34.261 65.4761 33.7943 65.6455 33.3276 65.6455C32.2668 65.6455 31.3334 64.6922 31.3334 63.6753C31.3334 63.2093 31.5456 62.7219 31.9274 62.3406L52.9507 41.3034L56.8965 37.8502L46.544 38.1891H39.1614C38.1643 38.1891 37.2521 37.3205 37.2521 36.3036C37.2521 35.2867 38.0582 34.3757 39.2463 34.3757H60.5878C61.8606 34.3757 62.6455 35.2232 62.6455 36.4307L62.6667 57.7433Z" fill="#E1E6E5"/>
</svg>
