<svg width="16" height="16" viewBox="0 0 16 16" fill="none" xmlns="http://www.w3.org/2000/svg">
<path d="M16 11.9648C16 12.5491 15.545 12.9926 15.0142 12.9926C14.4834 12.9926 14.0393 12.5166 14.0393 12.0081V8.00543L14.2343 2.95335L12.4469 4.97634L1.7007 15.7079C1.49493 15.9135 1.25662 16 1.01831 16C0.476618 16 2.55426e-07 15.5132 2.55426e-07 14.994C2.55426e-07 14.756 0.10834 14.5071 0.303295 14.3124L11.0386 3.56999L13.0535 1.80663L7.7671 1.97972H3.99727C3.48812 1.97972 3.02231 1.53617 3.02231 1.0169C3.02231 0.497635 3.43395 0.0324554 4.04063 0.0324554H14.9384C15.5884 0.0324554 15.9892 0.465181 15.9892 1.08182L16 11.9648Z" fill="#E1E6E5"/>
</svg>
